<svg id="visual" viewBox="0 0 900 600" width="900" height="600" xmlns="http://www.w3.org/2000/svg" xmlns:xlink="http://www.w3.org/1999/xlink" version="1.1"><path d="M0 400L18.8 415.3C37.7 430.7 75.3 461.3 112.8 470.2C150.3 479 187.7 466 225.2 460.8C262.7 455.7 300.3 458.3 337.8 464.5C375.3 470.7 412.7 480.3 450.2 475.3C487.7 470.3 525.3 450.7 562.8 448.7C600.3 446.7 637.7 462.3 675.2 474.2C712.7 486 750.3 494 787.8 494.3C825.3 494.7 862.7 487.3 881.3 483.7L900 480L900 601L881.3 601C862.7 601 825.3 601 787.8 601C750.3 601 712.7 601 675.2 601C637.7 601 600.3 601 562.8 601C525.3 601 487.7 601 450.2 601C412.7 601 375.3 601 337.8 601C300.3 601 262.7 601 225.2 601C187.7 601 150.3 601 112.8 601C75.3 601 37.7 601 18.8 601L0 601Z" fill="#F3F4F6" stroke-linecap="round" stroke-linejoin="miter"></path></svg>